<svg width="132" height="79" viewBox="0 0 132 79" fill="none" xmlns="http://www.w3.org/2000/svg">
<path d="M83.3528 13.2769H81.401C81.2096 10.0006 78.8446 7.30907 75.7263 6.61948L77.9242 1.31387L74.7526 0L72.0808 6.44784H61.699L63.2058 9.88213H74.1557C76.2685 9.88213 77.9819 11.5955 77.9819 13.7083V15.4399C77.9819 17.0013 77.2285 18.4868 75.9663 19.4119C75.2873 19.9101 71.8955 22.4011 69.4045 24.2284V20.3612H57.1179C55.0051 20.3612 53.2917 18.6479 53.2917 16.535V13.7083C53.2917 11.5955 55.0051 9.88213 57.1179 9.88213H60.7846L56.6911 0L53.518 1.31387L55.7934 6.80479C52.8376 7.70095 50.5713 10.195 50.0002 13.2769H48.0742V17.0925H49.8817C50.1673 20.8412 53.2963 23.7955 57.1179 23.7955H65.9702V31.0089L68.7027 29.0024C68.7027 29.0024 76.8974 22.9859 77.9971 22.1809C79.6846 20.9429 80.8329 19.1126 81.2445 17.0925H83.3528V13.2769Z" fill="#75F86F"/>
<path d="M28.1062 57.735L28.0834 42.2435H30.4575L30.4423 38.3398H21.7343L21.7434 42.2435H24.1205L24.1327 57.4297H23.8456H23.3915L14.4161 38.3702H11.0547L0 61.6386H4.74968L6.35974 58.218H16.4712L14.8232 54.2597H8.22346L12.7362 44.6783L20.6847 61.6386H21.7434H23.7985H24.1327H26.361H28.0272H28.1123H30.4575L30.4423 57.735H28.1062Z" fill="white"/>
<path d="M33.0824 65.668H46.7725V61.7658H33.0824V65.668Z" fill="#75F86F"/>
<path d="M58.8451 38V46.1976C57.5176 45.3303 55.9333 44.823 54.2321 44.823C49.5721 44.823 45.7793 48.6143 45.7793 53.2758C45.7793 57.9374 49.5705 61.7287 54.2321 61.7287C55.9333 61.7287 57.5176 61.2213 58.8451 60.354V61.7287H62.6849V38H58.8451ZM54.2321 57.8888C51.6894 57.8888 49.6207 55.82 49.6207 53.2758C49.6207 50.7316 51.6894 48.6644 54.2321 48.6644C56.7748 48.6644 58.8451 50.7332 58.8451 53.2758C58.8451 55.8185 56.7763 57.8888 54.2321 57.8888Z" fill="white"/>
<path d="M80.3831 54.2075L80.4135 52.8511C80.4332 51.68 80.2601 50.6016 79.8894 49.6158C79.5188 48.63 78.9902 47.7718 78.3022 47.0427C77.6141 46.3136 76.803 45.7486 75.8673 45.3476C74.9332 44.9466 73.9109 44.7461 72.8021 44.7461C71.59 44.7461 70.4751 44.9572 69.459 45.378C68.4428 45.7987 67.5633 46.3896 66.8236 47.1506C66.0839 47.91 65.5082 48.8199 65.0981 49.877C64.6865 50.9357 64.4814 52.1007 64.4814 53.3736C64.4814 54.9761 64.846 56.4038 65.5751 57.657C66.3042 58.9101 67.331 59.8959 68.657 60.6143C69.9815 61.3328 71.5277 61.6928 73.2943 61.6928C74.0537 61.6928 74.8132 61.6001 75.5742 61.4148C76.3336 61.2295 77.0733 60.953 77.7918 60.5824C78.5102 60.2118 79.1573 59.7713 79.733 59.2579L77.6688 56.3309C76.9701 56.8853 76.323 57.2757 75.7276 57.502C75.1306 57.7284 74.4745 57.8408 73.756 57.8408C72.7079 57.8408 71.7996 57.6463 71.0295 57.2544C70.2594 56.8641 69.6686 56.3051 69.2585 55.5745C69.023 55.1583 68.8635 54.6981 68.7633 54.2029H80.3816L80.3831 54.2075ZM70.5374 49.0158C71.1647 48.6558 71.9394 48.4766 72.8644 48.4766C73.4598 48.4766 74.0051 48.6057 74.4972 48.8624C74.9894 49.1191 75.3949 49.4639 75.7139 49.8953C75.9736 50.2476 76.1362 50.6517 76.2121 51.0998H68.9091C68.9699 50.9084 69.0397 50.7276 69.1202 50.5575C69.4392 49.8907 69.9101 49.3773 70.5374 49.0173V49.0158Z" fill="white"/>
<path d="M86.9526 61.7661L79.7939 44.707H84.7927L88.8528 56.0215L93.08 44.707H97.9816L90.4674 61.7661H86.9526Z" fill="white"/>
<path d="M104.139 61.6954C102.64 61.6954 101.298 61.4493 100.118 60.9556C98.9364 60.4635 97.978 59.7648 97.2383 58.8626V58.8595L99.9784 56.5189C100.615 57.1963 101.32 57.6854 102.09 57.9816C102.86 58.2793 103.647 58.4281 104.447 58.4281C104.734 58.4281 105.002 58.3932 105.248 58.3203C105.494 58.2489 105.709 58.1456 105.895 58.012C106.08 57.8783 106.218 57.7188 106.311 57.535C106.403 57.3497 106.449 57.134 106.449 56.888C106.449 56.4368 106.264 56.0875 105.895 55.8399C105.731 55.7169 105.427 55.5786 104.986 55.4237C104.544 55.2703 103.985 55.1002 103.306 54.9149C102.258 54.6475 101.376 54.3346 100.656 53.9747C99.9359 53.6147 99.3511 53.2 98.9 52.7261C98.5294 52.3357 98.2484 51.8846 98.0524 51.3697C97.8565 50.8563 97.7593 50.2913 97.7593 49.6746C97.7593 48.6888 98.0463 47.826 98.622 47.0863C99.1977 46.3466 99.9632 45.7725 100.917 45.3608C101.873 44.9507 102.915 44.7441 104.045 44.7441C104.888 44.7441 105.703 44.8474 106.495 45.0525C107.284 45.2575 108.024 45.5507 108.714 45.9304C109.402 46.3102 110.003 46.7582 110.517 47.2716L108.175 49.8903C107.805 49.5196 107.383 49.1976 106.911 48.9197C106.438 48.6417 105.966 48.4169 105.494 48.2422C105.021 48.0675 104.59 47.981 104.2 47.981C103.85 47.981 103.537 48.0114 103.259 48.0736C102.983 48.1359 102.75 48.2331 102.567 48.3668C102.383 48.5004 102.243 48.6599 102.15 48.8437C102.027 49.0883 101.986 49.3693 102.026 49.6852C102.03 49.7247 102.04 49.7642 102.052 49.8006C102.152 50.109 102.353 50.3839 102.652 50.6254C102.656 50.6285 102.661 50.6315 102.665 50.6345C102.87 50.7576 103.203 50.8988 103.66 51.0614C104.122 51.2254 104.724 51.4107 105.463 51.6158C106.449 51.8831 107.281 52.1808 107.959 52.5089C108.636 52.837 109.18 53.2167 109.592 53.6496C109.962 54.0187 110.224 54.4455 110.377 54.9285C110.53 55.4116 110.608 55.9295 110.608 56.4854C110.608 57.4925 110.325 58.3902 109.76 59.1815C109.195 59.9729 108.425 60.5881 107.449 61.0301C106.473 61.4721 105.369 61.6923 104.136 61.6923L104.139 61.6954Z" fill="white"/>
<path d="M122.855 61.7656C121.061 61.7656 119.5 61.3782 118.171 60.6021C116.842 59.8274 115.601 58.4983 114.449 56.6149L118.137 54.3228C118.625 55.099 119.134 55.7248 119.665 56.2002C120.197 56.6771 120.745 57.025 121.31 57.2467C121.875 57.4685 122.468 57.5794 123.087 57.5794C123.751 57.5794 124.366 57.4245 124.931 57.1146C125.496 56.8047 125.951 56.3673 126.294 55.8022C126.637 55.2372 126.809 54.5901 126.809 53.858C126.809 53.1259 126.664 52.5077 126.377 51.9973C126.089 51.4885 125.68 51.0997 125.149 50.8338C124.617 50.568 123.964 50.4359 123.188 50.4359C122.855 50.4359 122.495 50.4754 122.108 50.5528C121.72 50.6303 121.304 50.7351 120.862 50.8688C120.419 51.0009 119.964 51.168 119.5 51.367L118.336 48.2775L124.45 41.5654L125.712 42.463L115.977 42.3628V38.043H129.932L130.861 39.8702L123.219 48.1438L122.089 46.8148C122.267 46.7479 122.554 46.6765 122.954 46.5991C123.352 46.5216 123.718 46.4821 124.05 46.4821C125.047 46.4821 125.988 46.6644 126.874 47.0305C127.76 47.3965 128.546 47.9114 129.233 48.5752C129.919 49.239 130.457 50.0151 130.845 50.9007C131.232 51.7862 131.426 52.7401 131.426 53.7578C131.426 55.2858 131.043 56.6544 130.279 57.8619C129.515 59.0695 128.486 60.0218 127.19 60.719C125.894 61.4162 124.448 61.7656 122.853 61.7656H122.855Z" fill="#75F86F"/>
<path d="M16.2788 72.6582L19.4518 78.4286H17.9496L17.3375 77.2666H13.8272L13.2151 78.4286H11.7129L14.8859 72.6582H16.2773H16.2788ZM14.3771 76.2429H16.7907L15.5846 73.9493L14.3771 76.2429Z" fill="#75F86F"/>
<path d="M37.8566 72.6582C38.6601 72.6582 39.3117 73.3098 39.3117 74.1133V74.6541H37.9264V74.3974C37.9264 74.1194 37.7001 73.8931 37.4221 73.8931H34.9949C34.7169 73.8931 34.4906 74.1194 34.4906 74.3974V76.6879C34.4906 76.9659 34.7169 77.1922 34.9949 77.1922H37.4221C37.7001 77.1922 37.9264 76.9659 37.9264 76.6879V76.132H35.4764V75.1386H39.3117V76.972C39.3117 77.7755 38.6601 78.4271 37.8566 78.4271H34.5635C33.76 78.4271 33.1084 77.7755 33.1084 76.972V74.1133C33.1084 73.3098 33.76 72.6582 34.5635 72.6582H37.8566Z" fill="#75F86F"/>
<path d="M58.8608 72.6582V73.8369H54.8843V74.9487H58.6482V76.1274H54.8843V77.2499H58.8608V78.4286H53.499V72.6582H58.8608Z" fill="#75F86F"/>
<path d="M74.4585 72.6582L77.7424 76.6697V72.6582H79.1277V78.4286H77.592L74.3081 74.4171V78.4286H72.9229V72.6582H74.4585Z" fill="#75F86F"/>
<path d="M99.387 72.6582V73.8369H96.9765V78.4286H95.5912V73.8369H93.1807V72.6582H99.3855H99.387Z" fill="#75F86F"/>
<path d="M118.135 72.6582C118.939 72.6582 119.59 73.3098 119.59 74.1133V74.5842H118.205V74.3974C118.19 74.1194 117.979 73.8931 117.701 73.8931H115.292C115.027 73.8931 114.822 74.0632 114.822 74.326V74.4703C114.822 75.2252 119.713 74.5827 119.713 76.3932V76.972C119.713 77.7755 119.062 78.4271 118.258 78.4271H114.894C114.09 78.4271 113.438 77.7755 113.438 76.972V76.5011H114.824V76.6879C114.824 76.9659 115.05 77.1922 115.328 77.1922H117.862C118.126 77.1922 118.331 77.0221 118.331 76.7593V76.615C118.331 75.8252 113.44 76.5391 113.44 74.692V74.1133C113.44 73.3098 114.092 72.6582 114.895 72.6582H118.135Z" fill="#75F86F"/>
</svg>
